<svg width="1600" height="900" viewBox="0 0 1600 900" fill="none" xmlns="http://www.w3.org/2000/svg">
  <defs>
    <linearGradient id="wall" x1="0" y1="0" x2="1600" y2="900" gradientUnits="userSpaceOnUse">
      <stop stop-color="#102447"/>
      <stop offset="0.52" stop-color="#1F3F72"/>
      <stop offset="1" stop-color="#0D1C3A"/>
    </linearGradient>
    <linearGradient id="shelfWood" x1="0" y1="0" x2="1600" y2="0" gradientUnits="userSpaceOnUse">
      <stop stop-color="#5A3A25"/>
      <stop offset="0.5" stop-color="#70472B"/>
      <stop offset="1" stop-color="#583721"/>
    </linearGradient>
    <linearGradient id="bookWarm" x1="0" y1="0" x2="0" y2="200" gradientUnits="userSpaceOnUse">
      <stop stop-color="#F59E0B"/>
      <stop offset="1" stop-color="#B45309"/>
    </linearGradient>
    <linearGradient id="bookCool" x1="0" y1="0" x2="0" y2="200" gradientUnits="userSpaceOnUse">
      <stop stop-color="#22D3EE"/>
      <stop offset="1" stop-color="#0E7490"/>
    </linearGradient>
    <linearGradient id="bookRose" x1="0" y1="0" x2="0" y2="200" gradientUnits="userSpaceOnUse">
      <stop stop-color="#FB7185"/>
      <stop offset="1" stop-color="#BE123C"/>
    </linearGradient>
    <radialGradient id="lampGlow" cx="0" cy="0" r="1" gradientUnits="userSpaceOnUse" gradientTransform="translate(810 245) rotate(90) scale(310 700)">
      <stop stop-color="#FFF7D6" stop-opacity="0.6"/>
      <stop offset="1" stop-color="#FFF7D6" stop-opacity="0"/>
    </radialGradient>
    <radialGradient id="vignette" cx="0" cy="0" r="1" gradientUnits="userSpaceOnUse" gradientTransform="translate(800 450) rotate(90) scale(520 980)">
      <stop offset="0.62" stop-color="#000000" stop-opacity="0"/>
      <stop offset="1" stop-color="#000000" stop-opacity="0.34"/>
    </radialGradient>
  </defs>

  <rect width="1600" height="900" fill="url(#wall)"/>

  <rect x="0" y="170" width="1600" height="14" fill="#2C487B" opacity="0.55"/>
  <rect x="0" y="350" width="1600" height="22" fill="url(#shelfWood)"/>
  <rect x="0" y="560" width="1600" height="26" fill="url(#shelfWood)"/>
  <rect x="0" y="770" width="1600" height="34" fill="url(#shelfWood)"/>

  <g opacity="0.92">
    <rect x="120" y="190" width="34" height="156" rx="4" fill="url(#bookWarm)"/>
    <rect x="160" y="196" width="28" height="150" rx="4" fill="#FCD34D"/>
    <rect x="194" y="184" width="24" height="162" rx="4" fill="url(#bookCool)"/>
    <rect x="224" y="202" width="36" height="144" rx="4" fill="#60A5FA"/>
    <rect x="266" y="188" width="30" height="158" rx="4" fill="url(#bookRose)"/>
    <rect x="302" y="198" width="26" height="148" rx="4" fill="#A78BFA"/>
    <rect x="334" y="186" width="32" height="160" rx="4" fill="#34D399"/>
    <rect x="372" y="193" width="22" height="153" rx="4" fill="#F87171"/>
    <rect x="400" y="199" width="30" height="147" rx="4" fill="#38BDF8"/>
    <rect x="436" y="187" width="26" height="159" rx="4" fill="#FBBF24"/>
  </g>

  <g opacity="0.9">
    <rect x="990" y="188" width="28" height="158" rx="4" fill="#60A5FA"/>
    <rect x="1024" y="198" width="34" height="148" rx="4" fill="url(#bookRose)"/>
    <rect x="1064" y="190" width="24" height="156" rx="4" fill="#FCD34D"/>
    <rect x="1094" y="184" width="30" height="162" rx="4" fill="#34D399"/>
    <rect x="1130" y="195" width="22" height="151" rx="4" fill="#A78BFA"/>
    <rect x="1158" y="189" width="36" height="157" rx="4" fill="url(#bookCool)"/>
    <rect x="1200" y="200" width="28" height="146" rx="4" fill="#FB7185"/>
    <rect x="1234" y="186" width="24" height="160" rx="4" fill="#93C5FD"/>
    <rect x="1264" y="194" width="34" height="152" rx="4" fill="#F59E0B"/>
    <rect x="1304" y="190" width="26" height="156" rx="4" fill="#22D3EE"/>
  </g>

  <g opacity="0.88">
    <rect x="90" y="390" width="30" height="170" rx="4" fill="#F59E0B"/>
    <rect x="126" y="404" width="24" height="156" rx="4" fill="#A78BFA"/>
    <rect x="156" y="392" width="34" height="168" rx="4" fill="#38BDF8"/>
    <rect x="196" y="398" width="22" height="162" rx="4" fill="#FB7185"/>
    <rect x="224" y="388" width="28" height="172" rx="4" fill="#34D399"/>
    <rect x="258" y="402" width="26" height="158" rx="4" fill="#FCD34D"/>
  </g>

  <g opacity="0.88">
    <rect x="1288" y="392" width="28" height="168" rx="4" fill="#22D3EE"/>
    <rect x="1322" y="400" width="24" height="160" rx="4" fill="#FBBF24"/>
    <rect x="1352" y="386" width="32" height="174" rx="4" fill="#FB7185"/>
    <rect x="1390" y="396" width="22" height="164" rx="4" fill="#93C5FD"/>
    <rect x="1418" y="390" width="30" height="170" rx="4" fill="#34D399"/>
    <rect x="1454" y="404" width="24" height="156" rx="4" fill="#A78BFA"/>
  </g>

  <rect x="620" y="150" width="360" height="470" rx="12" fill="#102340" opacity="0.8"/>
  <rect x="640" y="170" width="320" height="430" rx="10" fill="#0F1F38"/>

  <g opacity="0.96">
    <rect x="662" y="188" width="18" height="150" rx="3" fill="#F59E0B"/>
    <rect x="684" y="196" width="16" height="142" rx="3" fill="#38BDF8"/>
    <rect x="704" y="190" width="14" height="148" rx="3" fill="#F87171"/>
    <rect x="722" y="182" width="20" height="156" rx="3" fill="#34D399"/>
    <rect x="746" y="194" width="16" height="144" rx="3" fill="#A78BFA"/>
    <rect x="766" y="186" width="18" height="152" rx="3" fill="#FCD34D"/>
    <rect x="788" y="192" width="12" height="146" rx="3" fill="#60A5FA"/>
    <rect x="804" y="184" width="20" height="154" rx="3" fill="#FB7185"/>
    <rect x="828" y="198" width="14" height="140" rx="3" fill="#22D3EE"/>
    <rect x="846" y="188" width="18" height="150" rx="3" fill="#F59E0B"/>
    <rect x="868" y="194" width="16" height="144" rx="3" fill="#93C5FD"/>
    <rect x="888" y="186" width="18" height="152" rx="3" fill="#FBBF24"/>
    <rect x="910" y="192" width="14" height="146" rx="3" fill="#34D399"/>
  </g>

  <g opacity="0.92" fill="#F8FAFC">
    <circle cx="808" cy="232" r="46"/>
    <rect x="786" y="276" width="44" height="112" rx="20"/>
    <rect x="756" y="300" width="26" height="86" rx="12"/>
    <rect x="834" y="300" width="26" height="86" rx="12"/>
  </g>

  <rect x="740" y="380" width="136" height="12" rx="6" fill="#D1D5DB" opacity="0.84"/>
  <rect x="720" y="402" width="176" height="10" rx="5" fill="#E5E7EB" opacity="0.74"/>

  <rect x="0" y="586" width="1600" height="314" fill="#0A162F" opacity="0.42"/>
  <rect width="1600" height="900" fill="url(#lampGlow)"/>
  <rect width="1600" height="900" fill="url(#vignette)"/>
</svg>
